<?xml version="1.0" encoding="UTF-8" standalone="no"?>
<svg
   xmlns:dc="http://purl.org/dc/elements/1.1/"
   xmlns:cc="http://creativecommons.org/ns#"
   xmlns:rdf="http://www.w3.org/1999/02/22-rdf-syntax-ns#"
   xmlns:svg="http://www.w3.org/2000/svg"
   xmlns="http://www.w3.org/2000/svg"
   xmlns:xlink="http://www.w3.org/1999/xlink"
   xmlns:sodipodi="http://sodipodi.sourceforge.net/DTD/sodipodi-0.dtd"
   xmlns:inkscape="http://www.inkscape.org/namespaces/inkscape"
   viewBox="0 0 0 600"
   height="6.6999998cm"
   width="18.299999cm"
   xml:space="preserve"
   id="svg2"
   version="1.1"
   inkscape:version="0.91 r13725"
   sodipodi:docname="lOGO_3.svg"
   inkscape:export-filename="/home/wendell/Desktop/lOGO_3_transparente.svg.png"
   inkscape:export-xdpi="600"
   inkscape:export-ydpi="600"><sodipodi:namedview
     pagecolor="#ffffff"
     bordercolor="#666666"
     borderopacity="1"
     objecttolerance="10"
     gridtolerance="10"
     guidetolerance="10"
     inkscape:pageopacity="0"
     inkscape:pageshadow="2"
     inkscape:window-width="1920"
     inkscape:window-height="995"
     id="namedview19"
     showgrid="false"
     inkscape:zoom="0.32"
     inkscape:cx="207.80037"
     inkscape:cy="721.43093"
     inkscape:window-x="2560"
     inkscape:window-y="27"
     inkscape:window-maximized="1"
     inkscape:current-layer="g4699"
     showborder="true"
     showguides="false"
     inkscape:guide-bbox="true"
     units="cm"
     inkscape:showpageshadow="true"><inkscape:grid
       type="xygrid"
       id="grid4287" /><sodipodi:guide
       position="0,21760"
       orientation="1,0"
       id="guide4289" /><sodipodi:guide
       position="22080,19520"
       orientation="1,0"
       id="guide4291" /><sodipodi:guide
       position="10880,21440"
       orientation="1,0"
       id="guide4293" /></sodipodi:namedview><metadata
     id="metadata8"><rdf:RDF><cc:Work
         rdf:about=""><dc:format>image/svg+xml</dc:format><dc:type
           rdf:resource="http://purl.org/dc/dcmitype/StillImage" /><dc:title /></cc:Work></rdf:RDF></metadata><defs
     id="defs6"><linearGradient
       inkscape:collect="always"
       id="linearGradient4665"><stop
         style="stop-color:#008940;stop-opacity:1"
         offset="0"
         id="stop4667" /><stop
         style="stop-color:#008300;stop-opacity:0"
         offset="1"
         id="stop4669" /></linearGradient><linearGradient
       inkscape:collect="always"
       id="linearGradient4627"><stop
         style="stop-color:#002c40;stop-opacity:1"
         offset="0"
         id="stop4629" /><stop
         style="stop-color:#1550a4;stop-opacity:1"
         offset="1"
         id="stop4631" /></linearGradient><inkscape:path-effect
       effect="spiro"
       id="path-effect4191"
       is_visible="true" /><inkscape:path-effect
       effect="spiro"
       id="path-effect4259"
       is_visible="true" /><inkscape:path-effect
       effect="spiro"
       id="path-effect5096"
       is_visible="true" /><inkscape:path-effect
       effect="spiro"
       id="path-effect5092"
       is_visible="true" /><clipPath
       id="clipPath20"
       clipPathUnits="userSpaceOnUse"><path
         id="path18"
         d="m 0,0 510,0 0,469.75 -510,0 z"
         inkscape:connector-curvature="0" /></clipPath><path
       sodipodi:nodetypes="ccccccc"
       id="path34-3-4"
       style="fill:none;fill-opacity:1;fill-rule:nonzero;stroke:none;stroke-width:1.06479764;stroke-miterlimit:4;stroke-dasharray:none;stroke-opacity:1"
       d="m 3843.703,-2879.7762 c 189.8258,0 377.1157,-26.4554 560.8332,-77.8519 l 0,0 c 249.6989,-70.6797 486.6381,-219.2121 706.5599,-434.0623 468.7434,-458.1384 903.3556,-1019.4672 1301.158,-1667.6584 l 0,0.1368 1387.2496,-2264.0944"
       inkscape:connector-curvature="0" /><path
       sodipodi:nodetypes="ccccccc"
       id="path34-3-5"
       style="fill:none;fill-opacity:1;fill-rule:nonzero;stroke:none;stroke-width:1.06479764;stroke-miterlimit:4;stroke-dasharray:none;stroke-opacity:1"
       d="m 3843.703,-2879.7762 c 189.8258,0 377.1157,-26.4554 560.8332,-77.8519 l 0,0 c 249.6989,-70.6797 486.6381,-219.2121 706.5599,-434.0623 468.7434,-458.1384 903.3556,-1019.4672 1301.158,-1667.6584 l 0,0.1368 1387.2496,-2264.0944"
       inkscape:connector-curvature="0" /><path
       sodipodi:nodetypes="ccccccc"
       id="path34-3-9"
       style="fill:none;fill-opacity:1;fill-rule:nonzero;stroke:none;stroke-width:1.06479764;stroke-miterlimit:4;stroke-dasharray:none;stroke-opacity:1"
       d="m 3843.703,-2879.7762 c 189.8258,0 377.1157,-26.4554 560.8332,-77.8519 l 0,0 c 249.6989,-70.6797 486.6381,-219.2121 706.5599,-434.0623 468.7434,-458.1384 903.3556,-1019.4672 1301.158,-1667.6584 l 0,0.1368 1387.2496,-2264.0944"
       inkscape:connector-curvature="0" /><linearGradient
       inkscape:collect="always"
       xlink:href="#linearGradient4627"
       id="linearGradient4633"
       x1="9509.5361"
       y1="-5928.4697"
       x2="5407.5659"
       y2="-5794.7769"
       gradientUnits="userSpaceOnUse"
       gradientTransform="matrix(1.1701793,0,0,1.0481343,-4079.5584,720.09552)" /><linearGradient
       inkscape:collect="always"
       xlink:href="#linearGradient4627"
       id="linearGradient4647"
       x1="1071.9391"
       y1="-5735.3579"
       x2="5290.7373"
       y2="-5839.3413"
       gradientUnits="userSpaceOnUse"
       gradientTransform="matrix(1.1701793,0,0,1.0481343,-4079.5584,720.09552)" /><linearGradient
       inkscape:collect="always"
       xlink:href="#linearGradient4665"
       id="linearGradient4671"
       x1="5303.7183"
       y1="-3046.6423"
       x2="9587.4219"
       y2="-3180.3354"
       gradientUnits="userSpaceOnUse"
       gradientTransform="matrix(1.1701793,0,0,1.0481343,-4002.0254,720.09552)" /></defs><g
     id="g3385"
     transform="matrix(0.08644097,0,0,0.07553683,-1199.3746,203.70651)"><g
       id="g3347"><g
         id="g4699"
         transform="translate(11859.133,-882.32899)"><g
           id="g4358"
           transform="matrix(0.29841717,0,0,0.29841717,991.16152,739.36009)"><text
             xml:space="preserve"
             style="font-style:normal;font-variant:normal;font-weight:normal;font-stretch:normal;font-size:15.71052933px;line-height:38.99999857%;font-family:'Latin Modern Mono';-inkscape-font-specification:'Latin Modern Mono, Normal';text-align:start;letter-spacing:0px;word-spacing:0px;writing-mode:lr-tb;text-anchor:start;fill:#15407a;fill-opacity:1;stroke:none;stroke-width:176.74345398;stroke-linecap:butt;stroke-linejoin:miter;stroke-miterlimit:4;stroke-dasharray:none;stroke-opacity:1"
             x="14642.396"
             y="-2116.364"
             id="text4725"
             sodipodi:linespacing="38.999999%"
             transform="scale(0.93480187,1.0697454)"><tspan
               sodipodi:role="line"
               id="tspan4727"
               x="14642.396"
               y="-2116.364"
               style="font-style:normal;font-variant:normal;font-weight:normal;font-stretch:normal;font-size:3557.94018555px;line-height:40.0000006%;font-family:Ubuntu;-inkscape-font-specification:Ubuntu;letter-spacing:-39.27632523px;fill:#000000;fill-opacity:1;stroke:#000000;stroke-width:176.74345398;stroke-miterlimit:4;stroke-dasharray:none;stroke-opacity:1">CompGen</tspan><tspan
               sodipodi:role="line"
               x="14642.396"
               y="-693.18805"
               style="font-style:normal;font-variant:normal;font-weight:normal;font-stretch:normal;font-size:3436.67822266px;line-height:40.0000006%;font-family:Ubuntu;-inkscape-font-specification:Ubuntu;letter-spacing:-39.27632523px;fill:#000000;fill-opacity:1;stroke:#000000;stroke-width:176.74345398;stroke-miterlimit:4;stroke-dasharray:none;stroke-opacity:1"
               id="tspan4196" /><tspan
               sodipodi:role="line"
               x="14642.396"
               y="-111.21472"
               style="font-style:normal;font-variant:normal;font-weight:normal;font-stretch:normal;font-size:990.0355835px;line-height:38.99999857%;font-family:Ubuntu;-inkscape-font-specification:Ubuntu;letter-spacing:-39.27632523px;fill:#000000;fill-opacity:1;stroke-width:176.74345398;stroke-miterlimit:4;stroke-dasharray:none"
               id="tspan4192">Computational Genomics Laboratory</tspan><tspan
               id="tspan4250"
               sodipodi:role="line"
               x="14642.396"
               y="274.89917"
               style="font-style:normal;font-variant:normal;font-weight:normal;font-stretch:normal;font-size:990.0355835px;line-height:38.99999857%;font-family:Ubuntu;-inkscape-font-specification:Ubuntu;letter-spacing:-39.27632523px;fill:#000000;fill-opacity:1;stroke-width:176.74345398;stroke-miterlimit:4;stroke-dasharray:none" /><tspan
               id="tspan4242"
               sodipodi:role="line"
               x="14642.396"
               y="661.013"
               style="font-style:normal;font-variant:normal;font-weight:normal;font-stretch:normal;font-size:990.0355835px;line-height:38.99999857%;font-family:Ubuntu;-inkscape-font-specification:Ubuntu;letter-spacing:-39.27632523px;fill:#000000;fill-opacity:1;stroke-width:176.74345398;stroke-miterlimit:4;stroke-dasharray:none" /><tspan
               id="tspan4246"
               sodipodi:role="line"
               x="14642.396"
               y="939.46692"
               style="font-style:normal;font-variant:normal;font-weight:normal;font-stretch:normal;font-size:649.71081543px;line-height:38.99999857%;font-family:Ubuntu;-inkscape-font-specification:Ubuntu;letter-spacing:-39.27632523px;fill:#000000;fill-opacity:1;stroke-width:176.74345398;stroke-miterlimit:4;stroke-dasharray:none">University of Brasília, Brazil.</tspan><tspan
               sodipodi:role="line"
               x="14642.396"
               y="1192.8541"
               style="font-size:368.21554565px;line-height:38.99999857%;fill:#15407a;fill-opacity:1;stroke-width:176.74345398;stroke-miterlimit:4;stroke-dasharray:none"
               id="tspan4729" /></text>
<g
             transform="translate(6409.0035,0)"
             id="g4396"><g
               id="g4314"><g
                 id="g4271"><path
                   inkscape:connector-curvature="0"
                   d="m 5571.135,-5673.9875 c -516.854,865.5544 -1081.915,1615.6769 -1690.804,2227.5703 -300.8938,302.3332 -625.2078,511.3796 -966.7603,610.6345 -242.8735,70.4899 -490.2028,105.968 -741.0641,105.968 l 0,4625.2589 4977.6294,0 0,-10218.0784 -1578.86,2649.0194 -0.151,-0.3754"
                   style="fill:url(#linearGradient4671);fill-opacity:1;fill-rule:nonzero;stroke:none"
                   id="path30" /><path
                   inkscape:connector-curvature="0"
                   d="m -1300.3325,-5673.9875 c 513.67276,865.5544 1074.99589,1615.6769 1680.02592,2227.5703 299.00584,302.3332 621.05978,511.3796 960.56178,610.6345 241.1429,70.4899 486.8715,105.968 736.2687,105.968 l 0,4625.2589 -4945.5751,0 0,-10218.0784 1568.6408,2649.0194 0.082,-0.3754"
                   style="fill:#008940;fill-opacity:1;fill-rule:nonzero;stroke:none"
                   id="path32" /><path
                   inkscape:connector-curvature="0"
                   d="m 2143.2896,-8377.3317 0,5676.9051 c 236.5416,0 469.923,-29.3999 698.8529,-86.517 l 0,0 c 311.1484,-78.5467 606.3985,-243.6114 880.4421,-482.3752 584.1003,-509.1307 1125.6697,-1132.9377 1621.3694,-1853.2752 l 0,0.152 1728.6492,-2516.095 0,-738.8036 -4929.3136,0"
                   style="fill:url(#linearGradient4633);fill-opacity:1;fill-rule:nonzero;stroke:none"
                   id="path34" /><path
                   inkscape:connector-curvature="0"
                   d="m 2076.5239,-8377.3317 0,5676.9051 c -237.5532,0 -471.4385,-29.3999 -701.1352,-86.517 l -0.08,0 C 1063.0646,-2865.4903 766.7899,-3030.555 491.85124,-3269.3188 -94.016666,-3778.4495 -637.35508,-4402.2565 -1134.8219,-5122.594 l 0,0.152 -1734.228,-2516.095 0,-738.8036 4945.5745,0"
                   style="fill:url(#linearGradient4647);fill-opacity:1;fill-rule:nonzero;stroke:none"
                   id="path36" /><path
                   inkscape:connector-curvature="0"
                   d="m 2263.3381,-2504.3021 c 235.5147,0 467.8833,-29.3997 695.8198,-86.5161 l 0,0 c 309.7988,-78.5457 603.7666,-243.6082 876.6212,-482.3694 581.5651,-509.1248 1120.7836,-1132.9241 1614.3329,-1853.2527 l 0,0.1519 1721.1455,-2516.0664"
                   style="fill:none;fill-opacity:1;fill-rule:nonzero;stroke:none;stroke-width:1.06479764;stroke-miterlimit:4;stroke-dasharray:none;stroke-opacity:1"
                   id="path34-3"
                   sodipodi:nodetypes="ccccccc" /><path
                   sodipodi:nodetypes="ccccccc"
                   inkscape:connector-curvature="0"
                   d="m -2881.9295,-7624.6313 1697.5191,2516.0929 0,-0.1521 c 486.93667,720.337 1018.7737,1344.1433 1592.24011,1853.2736 269.11874,238.7639 559.12201,403.8283 864.75649,482.3747 l 0.079,0 c 224.835,57.1174 453.7693,86.5172 686.2939,86.5172"
                   style="fill:none;fill-opacity:0.98666669;fill-rule:nonzero;stroke:none;stroke-width:7.86194181;stroke-miterlimit:4;stroke-dasharray:none;stroke-opacity:1"
                   id="path36-3" /><rect
                   y="-8372.9248"
                   x="1953.3417"
                   height="5673.0303"
                   width="318.86838"
                   id="rect4152"
                   style="opacity:1;fill:#144e9f;fill-opacity:1;fill-rule:evenodd;stroke:none;stroke-width:20.0170002;stroke-linecap:round;stroke-miterlimit:4;stroke-dasharray:none;stroke-dashoffset:0;stroke-opacity:0.39215686" /><rect
                   y="-2702.2278"
                   x="1954.71"
                   height="4595.2183"
                   width="292.1843"
                   id="rect4154"
                   style="opacity:1;fill:#008940;fill-opacity:1;fill-rule:evenodd;stroke:none;stroke-width:20.0170002;stroke-linecap:round;stroke-miterlimit:4;stroke-dasharray:none;stroke-dashoffset:0;stroke-opacity:0.39215686" /><text
                   transform="scale(0.98772787,1.0124246)"
                   sodipodi:linespacing="125%"
                   id="text4739"
                   y="957.7868"
                   x="17996.611"
                   style="font-style:normal;font-variant:normal;font-weight:normal;font-stretch:normal;font-size:18.4474411px;line-height:125%;font-family:'Latin Modern Mono';-inkscape-font-specification:'Latin Modern Mono, Normal';text-align:start;letter-spacing:0px;word-spacing:0px;writing-mode:lr-tb;text-anchor:start;fill:#000000;fill-opacity:1;stroke:none;stroke-width:1px;stroke-linecap:butt;stroke-linejoin:miter;stroke-opacity:1"
                   xml:space="preserve"><tspan
                     y="957.7868"
                     x="17996.611"
                     id="tspan4741"
                     sodipodi:role="line">==</tspan></text>
<text
                   transform="scale(0.98772787,1.0124246)"
                   sodipodi:linespacing="125%"
                   id="text4743"
                   y="738.72351"
                   x="14237.951"
                   style="font-style:normal;font-variant:normal;font-weight:normal;font-stretch:normal;font-size:18.4474411px;line-height:125%;font-family:'Latin Modern Mono';-inkscape-font-specification:'Latin Modern Mono, Normal';text-align:start;letter-spacing:0px;word-spacing:0px;writing-mode:lr-tb;text-anchor:start;fill:#000000;fill-opacity:1;stroke:none;stroke-width:1px;stroke-linecap:butt;stroke-linejoin:miter;stroke-opacity:1"
                   xml:space="preserve"><tspan
                     y="738.72351"
                     x="14237.951"
                     id="tspan4745"
                     sodipodi:role="line">---</tspan></text>
<g
                   transform="matrix(7.3073876,-7.167354,7.4515545,7.0286857,-1647.4818,-799.1461)"
                   id="g5059"
                   style="opacity:1;fill:#ffffff;fill-opacity:1;stroke:#000000;stroke-width:3.32498264;stroke-miterlimit:4;stroke-dasharray:none;stroke-opacity:1"><g
                     style="fill:#ffffff;fill-opacity:1;stroke:#000000;stroke-width:3.32498264;stroke-miterlimit:4;stroke-dasharray:none;stroke-opacity:1"
                     id="g5022"><path
                       inkscape:connector-curvature="0"
                       class="st0"
                       d="M 322.355,223.482 C 315,216.131 307.649,208.776 300.293,201.42 c -3.374,-3.374 -6.894,-8.277 -10.902,-10.902 -2.161,-1.418 -4.454,-0.958 -7.207,-0.926 -5.176,0.066 -10.34,0.52 -15.469,1.25 -1.481,0.179 -3.031,0.309 -4.453,0.523 l 0.086,0.082 c -0.066,0.011 -0.133,0.015 -0.199,0.027 l 58.374,58.374 c 1.621,-8.459 2.078,-17.237 1.832,-26.366 z"
                       style="fill:#ffffff;fill-opacity:1;stroke:#000000;stroke-width:3.32498264;stroke-miterlimit:4;stroke-dasharray:none;stroke-opacity:1"
                       id="path5026" /><path
                       inkscape:connector-curvature="0"
                       class="st0"
                       d="m 209.664,223.729 78.605,78.605 c 2.504,-2.008 4.969,-4.266 7.402,-6.695 2.43,-2.434 4.687,-4.898 6.695,-7.402 l -78.605,-78.605 c -5.163,4.144 -9.952,8.933 -14.097,14.097 z"
                       style="fill:#ffffff;fill-opacity:1;stroke:#000000;stroke-width:3.32498264;stroke-miterlimit:4;stroke-dasharray:none;stroke-opacity:1"
                       id="path5028" /><path
                       inkscape:connector-curvature="0"
                       class="st0"
                       d="m 222.641,321.45 c 2.16,1.414 4.453,0.954 7.206,0.922 5.168,-0.062 10.325,-0.52 15.442,-1.246 1.488,-0.176 3.05,-0.309 4.481,-0.523 l -0.086,-0.086 c 0.066,-0.011 0.133,-0.015 0.199,-0.027 l -37.41,-37.41 -20.809,-20.934 c -0.004,0.035 -0.004,0.078 -0.011,0.114 l -0.145,-0.145 c -1.621,8.461 -2.078,17.238 -1.832,26.367 7.355,7.355 14.707,14.706 22.062,22.062 3.376,3.375 6.895,8.278 10.903,10.906 z"
                       style="fill:#ffffff;fill-opacity:1;stroke:#000000;stroke-width:3.32498264;stroke-miterlimit:4;stroke-dasharray:none;stroke-opacity:1"
                       id="path5030" /><path
                       inkscape:connector-curvature="0"
                       class="st0"
                       d="m 132.325,414.712 c -0.172,-5.434 -0.61,-10.856 -1.199,-16.258 -0.309,-2.82 -0.664,-5.632 -1.043,-8.441 -0.21,-1.562 -0.09,-5.836 -1.175,-6.922 -0.969,-0.966 -4.59,-0.856 -5.969,-1.047 -2.817,-0.386 -5.637,-0.746 -8.465,-1.066 -2.286,-0.254 -4.586,-0.324 -6.875,-0.519 -3.582,-0.332 -7.023,-0.626 -10.199,-0.898 l 0.133,0.133 c -0.082,-0.004 -0.164,-0.016 -0.246,-0.02 l 35.038,35.038 z"
                       style="fill:#ffffff;fill-opacity:1;stroke:#000000;stroke-width:3.32498264;stroke-miterlimit:4;stroke-dasharray:none;stroke-opacity:1"
                       id="path5032" /><path
                       inkscape:connector-curvature="0"
                       class="st0"
                       d="m 60.314,378.087 c -5.371,2.699 -10.515,6.191 -15.519,10.441 -0.375,0.305 -0.774,0.551 -1.149,0.867 l 0.016,0.012 c -0.043,0.039 -0.086,0.062 -0.129,0.102 l 78.96,78.956 c 4.758,-5.39 8.492,-10.961 11.418,-16.777 L 60.314,378.087 Z"
                       style="fill:#ffffff;fill-opacity:1;stroke:#000000;stroke-width:3.32498264;stroke-miterlimit:4;stroke-dasharray:none;stroke-opacity:1"
                       id="path5034" /><path
                       inkscape:connector-curvature="0"
                       class="st0"
                       d="m 187.454,383.974 c 4.867,43.284 -0.563,-5.148 0,0 l 0,0 z"
                       style="fill:#ffffff;fill-opacity:1;stroke:#000000;stroke-width:3.32498264;stroke-miterlimit:4;stroke-dasharray:none;stroke-opacity:1"
                       id="path5040" /><path
                       inkscape:connector-curvature="0"
                       class="st0"
                       d="m 487.487,125.374 c 0.105,-0.132 0.011,-0.121 0,0 l 0,0 z"
                       style="fill:#ffffff;fill-opacity:1;stroke:#000000;stroke-width:3.32498264;stroke-miterlimit:4;stroke-dasharray:none;stroke-opacity:1"
                       id="path5044" /><path
                       inkscape:connector-curvature="0"
                       class="st0"
                       d="m 131.169,360.079 c 0.762,0.118 1.55,0.219 2.305,0.34 l -0.008,-0.047 c 0.054,0.008 0.109,0.012 0.164,0.02 -0.726,-4.45 -1.481,-8.89 -2.219,-13.336 -0.617,-3.715 -1.218,-7.434 -1.789,-11.156 -0.453,-2.954 -0.262,-7.215 -1.457,-9.942 -0.95,-2.164 -0.848,-1.539 -3.813,-1.832 -1.816,-0.183 -3.633,-0.351 -5.453,-0.5 -4.043,-0.332 -8.098,-0.574 -12.152,-0.703 -7.184,-0.222 -14.371,-0.179 -21.547,0.394 -31.816,2.555 -60.769,15.258 -83.663,37.465 -0.465,0.45 -0.965,0.84 -1.426,1.293 l 0.007,0.008 c -0.038,0.035 -0.082,0.07 -0.117,0.106 l 24.672,24.675 c 15.499,-15.5 35.918,-26.331 57.952,-28.339 16.036,-2.219 32.552,-0.61 48.544,1.554 z"
                       style="fill:#ffffff;fill-opacity:1;stroke:#000000;stroke-width:3.32498264;stroke-miterlimit:4;stroke-dasharray:none;stroke-opacity:1"
                       id="path5046" /><g
                       style="fill:#ffffff;fill-opacity:1;stroke:#000000;stroke-width:3.32498264;stroke-miterlimit:4;stroke-dasharray:none;stroke-opacity:1"
                       id="g5076"><path
                         sodipodi:nodetypes="cccccccccccccccccccccccc"
                         id="path5038"
                         style="fill:#ffffff;fill-opacity:1;stroke:#000000;stroke-width:3.32498264;stroke-miterlimit:4;stroke-dasharray:none;stroke-opacity:1"
                         d="m 177.496,255.74 c 8.438,-37.328 39.77,-69.062 77,-77.968 1.867,-0.446 3.75,-0.781 5.633,-1.125 1.156,-0.215 2.32,-0.422 3.504,-0.602 3.945,-0.594 7.918,-0.977 11.902,-1.195 1.059,-0.058 2.114,-0.129 3.195,-0.164 11.18,-0.363 22.434,0.531 33.523,1.918 1.516,0.207 2.965,0.379 4.551,0.622 l -0.008,-0.047 c 0.054,0.008 8.50072,-0.49277 8.55472,-0.48477 -2.031,-11.906 -4.113,-23.812 -5.742,-35.781 -32.968,-3.508 -75.19072,-0.95723 -104.94472,14.94977 -32.312,17.281 -58.398,47.999 -68.781,83.253 -10.328,35.05 -5.297,72.003 0.594,107.351 5.321,31.91 12.942,66.73 3.918,98.667 -0.114,0.39 -0.234,0.781 -0.348,1.171 -0.562,1.899 -1.164,3.79 -1.847,5.668 -3.309,9.039 -8.078,17.492 -13.981,25.094 -1.531,1.969 -3.133,3.879 -4.797,5.734 -0.672,0.75 -4.328,3.778 -4.262,4.551 0.054,0.664 2.258,2.258 2.722,2.718 7.309,7.309 14.618,14.621 21.926,21.93 39.515,-39.515 42.512,-84.742 37.645,-128.026 -4.593,-41.941 -19.519,-85.945 -9.957,-128.234 z"
                         class="st0"
                         inkscape:connector-curvature="0" /><path
                         id="path5048"
                         style="fill:#ffffff;fill-opacity:1;stroke:#000000;stroke-width:3.35678625;stroke-miterlimit:4;stroke-dasharray:none;stroke-opacity:1"
                         d="m 330.91979,271.80864 c -13.9173,31.24637 -44.16052,56.28645 -77.76826,62.64653 -10.24629,1.93809 -20.66861,2.56779 -31.04273,2.29469 -5.16533,-0.13827 -10.31641,-0.4947 -15.45513,-0.98045 -3.01522,-0.28646 -8.64048,-2.54184 -10.42452,1.16568 -0.8337,1.72299 0.32153,5.01623 0.64121,7.01964 0.64727,4.02391 1.26628,8.04708 1.8741,12.07844 0.74402,4.97273 1.61062,9.9039 2.50538,14.8469 11.62131,-0.16098 23.13594,1.29501 34.80363,0.72782 13.85885,-0.67943 27.61504,-2.9435 40.8777,-7.29509 25.12143,-8.24938 48.40678,-24.71994 65.09511,-45.3652 13.04467,-13.03974 22.05097,-32.63595 27.09962,-50.00225 1.52445,-5.24672 2.72404,-10.54667 3.64109,-15.88187 0.91707,-5.33519 1.55159,-10.70564 1.94591,-16.09335 0.39432,-5.38771 0.54843,-10.7927 0.50467,-16.19698 -0.0109,-1.35107 -0.17087,-5.08739 -0.41082,-10.01605 -0.23995,-4.92866 -0.55992,-11.04963 -0.89093,-17.17001 -0.33102,-6.12037 -0.67308,-12.24014 -0.95721,-17.16637 -0.28412,-4.92623 -7.2312,-43.23422 -7.33051,-44.58045 -71.56824,-24.6645 9.11033,36.04349 -34.70831,139.96837 z"
                         class="st0"
                         inkscape:connector-curvature="0"
                         sodipodi:nodetypes="ccccccccccccsssssscc" /></g><path
                       inkscape:connector-curvature="0"
                       class="st0"
                       d="m 340.156,320.806 c -1.164,1.445 0.035,-0.035 0,0 l 0,0 z"
                       style="fill:#ffffff;fill-opacity:1;stroke:#000000;stroke-width:3.32498264;stroke-miterlimit:4;stroke-dasharray:none;stroke-opacity:1"
                       id="path5050" /></g></g><path
                   sodipodi:nodetypes="ccssssc"
                   inkscape:connector-curvature="0"
                   inkscape:original-d="M 2521.5446,-2317.3548 3860.63,-3369.9188 c 0,0 1252.6974,-1249.0005 1503.2369,-1785.9539 250.5394,-536.9534 1455.2561,-1988.2565 1478.0324,-1941.5648 22.776,46.6915 4397.1527,1291.2976 5992.5937,213.9754 1170.079,-790.0954 3029.78,463.0147 4911.118,575.3738 1371.115,81.8872 4699.4,-854.9787 5500.283,-1045.3482"
                   inkscape:path-effect="#path-effect4259"
                   id="path4257"
                   d="M 2521.5446,-2317.3548 3860.63,-3369.9188 c 568.3826,-534.0319 1074.0302,-1134.7777 1503.2369,-1785.9539 450.0351,-682.7763 832.6287,-1439.4004 1478.0324,-1941.5648 411.1782,-319.9224 910.2446,-517.1749 1423.4155,-607.0276 513.1708,-89.8528 1040.8058,-75.2813 1556.3052,0.073 1030.999,150.7074 2009.763,539.0768 3012.873,820.9305 1592.962,447.5901 3257.272,626.9372 4911.118,575.3738 1872.99,-58.3959 3736.459,-412.5548 5500.283,-1045.3482"
                   style="fill:none;fill-rule:evenodd;stroke:none;stroke-width:39.27632523;stroke-linecap:butt;stroke-linejoin:miter;stroke-miterlimit:4;stroke-dasharray:none;stroke-opacity:1" /><text
                   transform="translate(378.18289,-159.06108)"
                   sodipodi:linespacing="125%"
                   id="text4261"
                   style="font-style:normal;font-variant:normal;font-weight:normal;font-stretch:normal;font-size:736.43109131px;line-height:125%;font-family:'Latin Modern Mono';-inkscape-font-specification:'Latin Modern Mono, Normal';text-align:start;letter-spacing:0px;word-spacing:0px;writing-mode:lr-tb;text-anchor:start;fill:#000000;fill-opacity:1;stroke:none;stroke-width:43.3140564;stroke-linecap:butt;stroke-linejoin:miter;stroke-miterlimit:4;stroke-dasharray:none;stroke-opacity:1"
                   xml:space="preserve"><textPath
                     style="font-style:normal;font-variant:normal;font-weight:bold;font-stretch:normal;font-size:850.81182861px;font-family:Roboto;-inkscape-font-specification:'Roboto Bold';letter-spacing:20.04821968px;fill:#ffffff;fill-opacity:1;stroke:#000000;stroke-width:43.3140564;stroke-miterlimit:4;stroke-dasharray:none;stroke-opacity:1"
                     id="textPath4265"
                     xlink:href="#path4257"> CGTTCA0011100101100011001011000101110001</textPath></text>
<path
                   sodipodi:nodetypes="cssssccccccccc"
                   inkscape:connector-curvature="0"
                   inkscape:original-d="m -2901.6576,-7642.2009 c 0,0 80.0777,78.3388 207.7555,213.8344 127.6779,135.4955 234.6271,444.8771 425.0275,673.5045 190.4004,228.6274 376.9596,442.9615 492.9864,760.952 50.4307,138.2145 666.4608,830.3874 787.44089,1118.1869 266.82734,634.755 1298.25002,1435.7669 1298.25002,1435.7669 l 247.97721,242.2127 225.2007,137.1567 202.42457,125.4836 259.36521,148.8296 168.2601,67.1192 213.8125,160.5024 213.8127,160.5023 213.8127,160.5025"
                   inkscape:path-effect="#path-effect4191"
                   id="path4189"
                   d="m -2901.6576,-7642.2009 c 74.9413,65.4397 144.5037,137.0375 207.7555,213.8344 168.9854,205.1732 290.6479,444.1702 425.0275,673.5045 152.8244,260.8125 323.2596,510.8095 492.9864,760.952 255.9974,377.2877 510.8995,755.6879 787.44089,1118.1869 391.80591,513.5912 826.56602,994.4032 1298.25002,1435.7669 l 247.97721,242.2127 c 75.47126,45.0505 150.54212,90.7718 225.2007,137.1567 67.43332,41.8959 134.53289,84.3347 202.42457,125.4836 85.25081,51.6703 171.73891,101.2991 259.36521,148.8296 l 168.2601,67.1192 c 71.2708,53.5008 142.5416,107.0016 213.8125,160.5024 71.2709,53.5008 142.5418,107.0015 213.8127,160.5023 71.2709,53.5008 142.5418,107.0016 213.8127,160.5025"
                   style="fill:none;fill-rule:evenodd;stroke:none;stroke-width:39.27632523;stroke-linecap:butt;stroke-linejoin:miter;stroke-miterlimit:4;stroke-dasharray:none;stroke-opacity:1" /><rect
                   y="-1610.0392"
                   x="7278.3389"
                   height="218.94562"
                   width="14232.25"
                   id="rect4246"
                   style="opacity:1;fill:#008940;fill-opacity:1;fill-rule:evenodd;stroke:none;stroke-width:44.7881012;stroke-linecap:round;stroke-miterlimit:4;stroke-dasharray:none;stroke-dashoffset:0;stroke-opacity:1"
                   transform="scale(1,-1)" /><text
                   transform="matrix(0.93214734,-0.26719378,0.30746005,0.98466042,0,0)"
                   sodipodi:linespacing="0%"
                   id="text4673"
                   y="-1520.5586"
                   x="3120.6157"
                   style="font-style:normal;font-variant:normal;font-weight:bold;font-stretch:normal;font-size:857.04620361px;line-height:0%;font-family:Roboto;-inkscape-font-specification:'Roboto Bold';text-align:start;letter-spacing:0px;word-spacing:0px;writing-mode:lr-tb;text-anchor:start;fill:#ffffff;fill-opacity:1;stroke:#000000;stroke-width:43.3140564;stroke-linecap:butt;stroke-linejoin:miter;stroke-miterlimit:4;stroke-dasharray:none;stroke-opacity:1"
                   xml:space="preserve"><tspan
                     style="font-size:866.28112793px;stroke-width:43.3140564;stroke-miterlimit:4;stroke-dasharray:none"
                     y="-1520.5586"
                     x="3120.6157"
                     id="tspan4675"
                     sodipodi:role="line">A</tspan></text>
<text
                   transform="scale(0.98772787,1.0124246)"
                   sodipodi:linespacing="0%"
                   id="text4695"
                   y="-1773.9857"
                   x="-4279.6338"
                   style="font-style:normal;font-variant:normal;font-weight:normal;font-stretch:normal;font-size:18.28365135px;line-height:0%;font-family:'Latin Modern Mono';-inkscape-font-specification:'Latin Modern Mono, Normal';text-align:start;letter-spacing:0px;word-spacing:0px;writing-mode:lr-tb;text-anchor:start;fill:#000000;fill-opacity:1;stroke:none;stroke-width:1px;stroke-linecap:butt;stroke-linejoin:miter;stroke-opacity:1"
                   xml:space="preserve"><tspan
                     y="-1773.9857"
                     x="-4279.6338"
                     id="tspan4697"
                     sodipodi:role="line">=</tspan></text>
<path
                   sodipodi:nodetypes="ccccccc"
                   inkscape:connector-curvature="0"
                   d="m -2829.6879,-7581.2228 1734.228,2516.0977 0,-0.1523 c 497.46691,720.3375 1040.805314,1344.1446 1626.67311,1853.2752 274.9387,238.7638 571.21329,403.8285 883.45649,482.3752 l 0.081,0 c 229.6968,57.1171 463.5821,86.517 701.1353,86.517"
                   style="fill:none;fill-opacity:1;fill-rule:nonzero;stroke:none;stroke-width:61.87722397;stroke-miterlimit:4;stroke-dasharray:none;stroke-opacity:1"
                   id="path36-2" /><text
                   transform="translate(-185.09742,162.20166)"
                   sodipodi:linespacing="125%"
                   id="text4462"
                   style="font-style:normal;font-variant:normal;font-weight:normal;font-stretch:normal;font-size:495.01776123px;line-height:125%;font-family:'Latin Modern Mono';-inkscape-font-specification:'Latin Modern Mono, Normal';text-align:start;letter-spacing:0px;word-spacing:0px;writing-mode:lr-tb;text-anchor:start;fill:#ffffff;fill-opacity:1;stroke:none;stroke-width:43.3140564;stroke-linecap:butt;stroke-linejoin:miter;stroke-miterlimit:4;stroke-dasharray:none;stroke-opacity:1"
                   xml:space="preserve"><textPath
                     style="font-style:normal;font-variant:normal;font-weight:bold;font-stretch:normal;font-size:850.81182861px;font-family:Roboto;-inkscape-font-specification:'Roboto Bold';letter-spacing:19.92446518px;fill:#ffffff;fill-opacity:1;stroke:#000000;stroke-width:43.3140564;stroke-miterlimit:4;stroke-dasharray:none;stroke-opacity:1"
                     id="textPath4466"
                     xlink:href="#path36-2">100011TGAACG</textPath></text>
<text
                   transform="matrix(0.85917428,0.49251843,-0.32755844,0.97613657,0,0)"
                   sodipodi:linespacing="0%"
                   id="text4673-7"
                   y="-2756.3159"
                   x="379.62277"
                   style="font-style:normal;font-variant:normal;font-weight:bold;font-stretch:normal;font-size:857.04626465px;line-height:0%;font-family:Roboto;-inkscape-font-specification:'Roboto Bold';text-align:start;letter-spacing:0px;word-spacing:0px;writing-mode:lr-tb;text-anchor:start;fill:#ffffff;fill-opacity:1;stroke:#000000;stroke-width:43.3140564;stroke-linecap:butt;stroke-linejoin:miter;stroke-miterlimit:4;stroke-dasharray:none;stroke-opacity:1"
                   xml:space="preserve"><tspan
                     style="font-size:866.28118896px;stroke-width:43.3140564;stroke-miterlimit:4;stroke-dasharray:none"
                     y="-2756.3159"
                     x="379.62277"
                     id="tspan4675-8"
                     sodipodi:role="line">T</tspan></text>
</g></g></g></g></g></g></g><style
     id="style5020"
     type="text/css">
	.st0{fill:#374149;}
</style></svg>